<svg xmlns="http://www.w3.org/2000/svg" viewBox="0 0 1440 320"><path fill="#090f14" fill-opacity="1" d="M0,128L26.7,117.3C53.3,107,107,85,160,101.3C213.3,117,267,171,320,181.3C373.3,192,427,160,480,144C533.3,128,587,128,640,138.7C693.3,149,747,171,800,181.3C853.3,192,907,192,960,176C1013.3,160,1067,128,1120,122.7C1173.3,117,1227,139,1280,149.3C1333.3,160,1387,160,1413,160L1440,160L1440,0L1413.3,0C1386.7,0,1333,0,1280,0C1226.7,0,1173,0,1120,0C1066.7,0,1013,0,960,0C906.7,0,853,0,800,0C746.7,0,693,0,640,0C586.7,0,533,0,480,0C426.7,0,373,0,320,0C266.7,0,213,0,160,0C106.7,0,53,0,27,0L0,0Z"></path></svg>