<svg version="1.1" id="Layer_1" xmlns="http://www.w3.org/2000/svg" xmlns:xlink="http://www.w3.org/1999/xlink" x="0px" y="0px"
	 width="100%" viewBox="0 0 512 512" enable-background="new 0 0 512 512" xml:space="preserve">
<path fill="#F44336" opacity="1.000000" stroke="none" 
	d="
M1.222196,411.357483 
	C1.000000,308.645782 1.000000,206.291550 1.000000,103.468658 
	C2.006919,89.282669 8.777472,78.937431 19.921043,71.352539 
	C27.869562,65.942360 36.507778,62.305466 46.413372,62.585331 
	C52.552216,62.758770 58.702236,62.337074 65.216278,62.961662 
	C121.055603,105.454758 175.313568,149.404556 230.297073,192.430862 
	C237.768341,198.277374 245.123001,204.270432 252.637894,210.064713 
	C255.894135,212.575409 258.233002,212.477631 261.414032,209.990372 
	C286.190735,190.617386 310.785828,171.014587 335.497040,151.559036 
	C360.334930,132.003754 385.119812,112.380867 409.938263,92.800774 
	C419.869751,84.965485 429.727173,77.036247 439.741150,69.304016 
	C442.332458,67.303162 445.725128,66.353912 447.921082,63.214508 
	C459.197632,62.674454 470.207428,61.114906 480.895081,64.716820 
	C492.660950,68.682129 501.865173,75.990639 508.448486,86.552109 
	C511.455261,91.375832 511.986145,96.843361 512.776855,102.651031 
	C513.000000,205.354233 513.000000,307.708466 513.000000,410.531342 
	C512.022583,424.724731 505.249725,435.083801 494.110016,442.653107 
	C486.172943,448.046295 477.524261,451.814789 467.624786,451.374878 
	C461.371002,451.096954 455.021545,452.412659 448.565186,450.023193 
	C446.681396,445.436981 446.576172,440.964020 446.576691,436.460999 
	C446.587097,345.989258 446.598511,255.517487 446.521057,165.045807 
	C446.518799,162.405594 448.085602,158.680099 445.006195,157.324814 
	C442.402802,156.178986 440.353821,159.361298 438.328827,160.920395 
	C395.309875,194.042236 352.258087,227.121246 309.213318,260.209534 
	C294.953766,271.170776 280.654449,282.082001 266.486786,293.163147 
	C264.129608,295.006805 261.756775,296.850037 258.531158,298.097412 
	C254.885880,299.300415 252.763763,297.088348 250.568375,295.423767 
	C229.332367,279.321960 208.288315,262.969666 187.156097,246.732300 
	C149.117966,217.504898 111.087700,188.267319 73.084305,158.994766 
	C71.798447,158.004318 70.529762,156.288025 68.779282,157.061172 
	C66.685837,157.985809 67.451576,160.271286 67.449112,161.994186 
	C67.401215,195.487854 67.416054,228.981613 67.415199,262.475342 
	C67.413704,321.131012 67.422150,379.786713 67.401497,438.442383 
	C67.400269,441.925323 67.727219,445.461029 66.129166,449.183655 
	C65.409309,450.236084 64.733002,450.709869 63.906197,450.927979 
	C43.196312,456.391754 18.519213,447.022247 6.578814,429.226837 
	C3.010035,423.908112 1.961117,417.902039 1.222196,411.357483 
z"/>
<path fill="#FFFFFF" opacity="1.000000" stroke="none" 
	d="
M513.000000,102.531342 
	C510.093811,96.091637 507.956177,88.821716 502.999695,82.909393 
	C494.123291,72.321098 483.106598,65.745201 469.112030,65.058594 
	C462.501892,64.734283 455.860809,65.041412 448.788574,65.108170 
	C444.500977,67.015862 440.421875,67.457397 436.195648,67.456871 
	C316.733063,67.442162 197.270447,67.446602 77.807846,67.438889 
	C73.952843,67.438637 70.131142,67.324074 66.132126,65.315445 
	C55.017647,65.443733 44.219276,63.352142 33.799381,67.019432 
	C18.558760,72.383369 8.186227,82.653984 3.010136,98.035217 
	C2.495723,99.563843 2.136950,101.144836 1.352970,102.850769 
	C1.000000,70.186729 1.038843,37.373322 0.930696,4.560407 
	C0.921443,1.752962 1.279290,0.903828 4.435605,0.905824 
	C172.832581,1.012321 341.229645,1.014676 509.626617,0.893709 
	C512.960999,0.891313 513.059570,1.986711 513.052979,4.622567 
	C512.971680,37.102444 513.000000,69.582603 513.000000,102.531342 
z"/>
<path fill="#FFFFFF" opacity="1.000000" stroke="none" 
	d="
M448.646057,448.565979 
	C459.217865,448.418732 469.454132,450.428192 479.552368,447.092010 
	C491.264160,443.222748 500.354218,436.290344 506.615112,425.748047 
	C509.269501,421.278442 511.343872,416.484985 512.647034,411.149231 
	C513.000000,443.813263 512.961182,476.626617 513.069336,509.439545 
	C513.078552,512.246765 512.720947,513.096130 509.564453,513.094177 
	C341.167542,512.987671 172.770569,512.985352 4.373693,513.106262 
	C1.040317,513.108643 0.940274,512.014526 0.946888,509.377777 
	C1.028360,476.897766 1.000000,444.417511 1.000000,411.468658 
	C3.932693,417.914551 6.033824,425.233826 11.018579,431.137970 
	C19.942877,441.708344 30.980419,448.316040 45.037338,448.951904 
	C51.335381,449.236755 57.657269,448.994354 64.429482,448.965057 
	C66.318428,447.334686 68.170845,446.788391 70.248741,446.689178 
	C73.079071,446.554108 75.909554,446.561371 78.740417,446.561279 
	C196.821701,446.556885 314.902985,446.557220 432.984253,446.561615 
	C437.144775,446.561768 441.320282,446.393219 445.900330,447.514038 
	C447.053833,447.697266 447.671082,447.926086 448.646057,448.565979 
z"/>
<path fill="#ECEFF1" opacity="1.000000" stroke="none" 
	d="
M447.394836,448.451843 
	C445.528748,448.830292 443.865906,448.986481 442.203064,448.986481 
	C316.748871,448.987305 191.294678,448.975769 65.365555,448.952026 
	C64.927231,429.777649 64.992477,410.616455 64.995415,391.455231 
	C65.007439,313.137939 65.000450,234.820663 65.000450,156.503372 
	C65.000450,154.578293 65.000450,152.653214 65.000450,149.772705 
	C70.144867,153.695969 74.476639,156.975800 78.783707,160.287735 
	C136.886307,204.965927 194.983810,249.650742 253.096375,294.315979 
	C254.392532,295.312195 255.850327,296.098175 257.585022,296.994202 
	C260.074371,296.967316 261.633362,298.073944 263.255463,299.350677 
	C301.527069,329.474060 339.753296,359.654541 377.947662,389.876038 
	C399.982574,407.311218 422.054810,424.700409 444.123901,442.092926 
	C446.146942,443.687317 448.091614,445.185638 447.394836,448.451843 
z"/>
<path fill="#ECEFF1" opacity="1.000000" stroke="none" 
	d="
M65.837044,65.447952 
	C67.655388,65.103630 69.652702,65.007690 71.650017,65.007576 
	C195.222885,65.000473 318.795746,65.000847 442.368622,65.004936 
	C444.033539,65.004997 445.698486,65.061150 447.853394,65.122513 
	C431.560028,78.531929 414.819702,91.964417 397.984955,105.277489 
	C352.278625,141.422485 306.522522,177.504517 260.828888,213.665573 
	C258.388580,215.596802 256.732666,216.560165 253.676224,214.136658 
	C191.188416,164.588730 128.591324,115.178627 65.837044,65.447952 
z"/>
<path fill="#CFD8DC" opacity="1.000000" stroke="none" 
	d="
M447.499878,448.781738 
	C442.565674,442.484741 435.795441,438.700775 429.865417,433.988068 
	C389.283813,401.737335 348.592651,369.624420 307.916443,337.492828 
	C293.314056,325.957855 278.655304,314.494232 264.022644,302.997559 
	C261.937134,301.358978 259.749329,299.831360 258.059814,297.317383 
	C273.833527,284.639923 289.681885,272.211578 305.635101,259.919281 
	C351.827698,224.326889 398.061462,188.787888 444.285889,153.236786 
	C445.561462,152.255768 446.914337,151.375305 449.015961,149.895279 
	C449.015961,249.801483 449.015961,348.873779 449.031891,448.402252 
	C448.634613,448.844452 448.221405,448.830444 447.499878,448.781738 
z"/>
</svg>