<svg version="1.1" id="Layer_1" xmlns="http://www.w3.org/2000/svg" xmlns:xlink="http://www.w3.org/1999/xlink" x="0px" y="0px"
	 width="100%" viewBox="0 0 512 512" enable-background="new 0 0 512 512" xml:space="preserve">
<path fill="#0B66C3" opacity="1.000000" stroke="none" 
	d="
M1.000002,336.000000 
	C1.000000,283.645782 1.000000,231.291550 1.429619,178.544846 
	C2.238192,177.142410 2.883337,176.150925 2.955000,175.119614 
	C3.687507,164.577820 4.191703,154.018860 5.024323,143.485611 
	C6.231010,128.220123 8.075794,112.993637 8.867548,97.710068 
	C9.623260,83.122231 13.548197,69.634491 20.545139,56.976837 
	C31.545261,37.077328 47.737652,23.082630 68.983505,14.930223 
	C78.559296,11.255822 88.417740,9.423238 98.693344,8.800699 
	C110.982353,8.056178 123.188133,6.012640 135.471695,5.083387 
	C148.987183,4.060938 162.552383,3.704680 176.087723,2.917256 
	C177.092255,2.858817 178.030792,1.665648 179.000000,1.000000 
	C230.687561,1.000000 282.375122,1.000000 334.405579,1.425411 
	C335.595062,2.229895 336.423279,2.888829 337.290924,2.945640 
	C348.493286,3.679111 359.713776,4.166595 370.904846,5.035460 
	C385.996338,6.207149 401.044434,8.073200 416.151855,8.865170 
	C430.552460,9.620086 443.961731,13.363870 456.468811,20.224142 
	C479.851593,33.049839 496.012512,52.297867 501.660553,78.325653 
	C505.781616,97.316544 506.992401,116.977470 508.886383,136.399597 
	C510.151917,149.377487 510.303864,162.462646 511.089050,175.491669 
	C511.141571,176.362991 512.336426,177.165482 513.000000,178.000000 
	C513.000000,230.354233 513.000000,282.708466 512.766113,335.213379 
	C511.984131,335.896240 511.435974,336.428375 510.558289,336.903381 
	C508.586975,335.468811 506.831055,334.205719 505.320374,332.697052 
	C472.344360,299.765228 439.407990,266.793610 406.402863,233.891052 
	C404.837921,232.330994 402.708649,231.337021 400.882568,230.061005 
	C400.922974,230.042587 400.963409,230.121704 400.887512,229.787811 
	C400.347900,228.974197 399.884186,228.494476 399.182190,227.816376 
	C395.793732,223.989716 392.937408,220.045792 389.440430,216.789932 
	C376.919128,205.131897 361.499268,200.619156 344.843964,199.670349 
	C321.259827,198.326828 299.050232,201.651932 281.085999,218.970184 
	C278.560364,216.438187 276.227814,214.200577 273.710938,211.611084 
	C272.564392,205.967560 269.181763,203.289795 263.941162,202.197998 
	C263.347870,201.233383 262.956818,200.477829 262.383728,199.904068 
	C236.574326,174.063629 210.761841,148.226181 184.878769,122.459656 
	C183.829437,121.415016 182.096085,121.057503 180.690643,120.365433 
	C180.699860,120.351021 180.723770,120.325989 180.772186,120.105530 
	C180.512802,119.562904 180.205017,119.240730 179.620636,118.740936 
	C178.818863,117.718964 178.325104,116.853073 177.763855,116.033424 
	C166.114609,99.021118 144.343872,92.464211 125.301086,100.224518 
	C106.486877,107.891678 95.583092,127.518494 98.822517,147.725555 
	C100.863403,160.456284 107.798820,169.970383 118.187149,177.700592 
	C118.987961,178.301239 119.585052,178.617462 120.143677,178.905029 
	C120.105217,178.876389 120.155396,178.794647 120.150536,179.148254 
	C121.313728,181.045731 122.348221,182.716415 123.672920,184.111526 
	C129.432953,190.177750 135.277512,196.163742 140.631119,202.323471 
	C133.510864,202.498108 126.848946,202.439117 120.191292,202.580765 
	C111.877190,202.757614 107.980415,206.710129 107.977371,214.982956 
	C107.954193,278.094208 107.994011,341.205505 107.912918,404.316681 
	C107.905708,409.923615 109.905037,413.947418 115.101387,416.727905 
	C116.638245,418.698212 117.946289,420.424011 119.462280,421.942108 
	C147.951019,450.470581 176.476364,478.962555 204.940811,507.515198 
	C206.529388,509.108704 207.657547,511.161163 209.000000,513.000000 
	C199.312439,513.000000 189.624878,513.000000 179.591766,512.574280 
	C178.399368,511.769714 177.570816,511.111176 176.702881,511.054352 
	C165.494232,510.320801 154.267563,509.832977 143.070190,508.964050 
	C127.971054,507.792267 112.914001,505.985870 97.800667,505.116028 
	C83.069466,504.268188 69.409859,500.352264 56.580463,493.221130 
	C36.958279,482.314331 23.225487,466.243500 15.036444,445.447479 
	C11.229336,435.779358 9.379456,425.715027 8.787327,415.255920 
	C8.091413,402.963593 6.024930,390.754700 5.080133,378.469086 
	C4.066226,365.284790 3.704207,352.051025 2.916663,338.847290 
	C2.857990,337.863586 1.665439,336.947510 1.000002,336.000000 
z"/>
<path fill="#0B4C8F" opacity="1.000000" stroke="none" 
	d="
M141.091354,202.178879 
	C135.277512,196.163742 129.432953,190.177750 123.672920,184.111526 
	C122.348221,182.716415 121.313728,181.045731 120.506332,179.223404 
	C144.333786,190.402679 170.388550,182.000351 181.104858,159.439713 
	C187.306229,146.384216 186.480148,133.338730 180.681412,120.379852 
	C182.096085,121.057503 183.829437,121.415016 184.878769,122.459656 
	C210.761841,148.226181 236.574326,174.063629 262.383728,199.904068 
	C262.956818,200.477829 263.347870,201.233383 263.471252,202.269653 
	C248.119965,202.646133 233.121201,202.630630 218.122635,202.678223 
	C209.393097,202.705902 206.009689,206.087753 206.007904,214.777588 
	C205.994843,278.105927 205.994629,341.434296 206.008072,404.762634 
	C206.009903,413.387268 209.559052,416.972595 218.081528,416.991516 
	C231.913712,417.022186 245.746002,417.001617 259.578247,416.999359 
	C270.507660,416.997589 273.487152,414.029663 273.490265,403.070312 
	C273.499329,370.906189 273.431763,338.741852 273.525818,306.578003 
	C273.560974,294.547699 276.193512,283.095367 282.779236,272.854858 
	C291.049347,259.995270 303.283875,256.015564 317.829102,258.030579 
	C330.945007,259.847626 339.728210,267.656708 342.727692,280.138000 
	C345.263428,290.689606 346.393890,301.783142 346.560181,312.661102 
	C347.031281,343.484344 346.658325,374.320007 346.687531,405.150696 
	C346.695465,413.523560 350.235321,416.972900 358.581085,416.990509 
	C373.746460,417.022522 388.912048,417.027008 404.077423,416.988800 
	C412.300415,416.968079 415.962006,413.313934 415.962494,405.054474 
	C415.964569,369.557343 416.169952,334.057648 415.805664,298.563965 
	C415.561615,274.783478 412.910034,251.357697 400.842163,230.079422 
	C402.708649,231.337021 404.837921,232.330994 406.402863,233.891052 
	C439.407990,266.793610 472.344360,299.765228 505.320374,332.697052 
	C506.831055,334.205719 508.586975,335.468811 510.617493,337.370056 
	C510.681030,347.324005 510.643280,356.774872 509.964569,366.179504 
	C508.886627,381.115326 507.475830,396.029572 506.011810,410.933899 
	C505.371277,417.454437 504.548615,423.985809 503.294678,430.412018 
	C499.345337,450.651520 489.456512,467.564484 474.196960,481.417053 
	C460.910583,493.478363 445.294495,501.075256 427.765015,503.857819 
	C411.882812,506.378967 395.784302,507.681519 379.737183,508.975769 
	C366.241180,510.064240 352.678833,510.315216 339.155060,511.096466 
	C337.738129,511.178314 336.383514,512.339539 335.000000,513.000000 
	C327.312408,513.000000 319.624847,513.000000 311.360992,512.888245 
	C310.470978,512.625488 310.209412,512.700012 310.000000,513.000000 
	C276.645782,513.000000 243.291550,513.000000 209.468658,513.000000 
	C207.657547,511.161163 206.529388,509.108704 204.940811,507.515198 
	C176.476364,478.962555 147.951019,450.470581 119.462280,421.942108 
	C117.946289,420.424011 116.638245,418.698212 115.570770,416.845215 
	C131.382584,416.748199 146.856827,416.917664 162.331512,416.985840 
	C171.496506,417.026215 175.558762,413.126221 175.565262,404.038666 
	C175.610199,341.265259 175.606461,278.491821 175.569824,215.718384 
	C175.564438,206.492172 171.689041,202.711273 162.526886,202.556778 
	C155.381622,202.436310 148.236526,202.305237 141.091354,202.178879 
z"/>
<path fill="#000000" opacity="1.000000" stroke="none" 
	d="
M513.000000,177.531342 
	C512.336426,177.165482 511.141571,176.362991 511.089050,175.491669 
	C510.303864,162.462646 510.151917,149.377487 508.886383,136.399597 
	C506.992401,116.977470 505.781616,97.316544 501.660553,78.325653 
	C496.012512,52.297867 479.851593,33.049839 456.468811,20.224142 
	C443.961731,13.363870 430.552460,9.620086 416.151855,8.865170 
	C401.044434,8.073200 385.996338,6.207149 370.904846,5.035460 
	C359.713776,4.166595 348.493286,3.679111 337.290924,2.945640 
	C336.423279,2.888829 335.595062,2.229895 334.874268,1.425411 
	C394.260132,1.000000 453.520264,1.000000 513.000000,1.000000 
	C513.000000,59.687378 513.000000,118.375031 513.000000,177.531342 
z"/>
<path fill="#000000" opacity="1.000000" stroke="none" 
	d="
M1.000002,336.468658 
	C1.665439,336.947510 2.857990,337.863586 2.916663,338.847290 
	C3.704207,352.051025 4.066226,365.284790 5.080133,378.469086 
	C6.024930,390.754700 8.091413,402.963593 8.787327,415.255920 
	C9.379456,425.715027 11.229336,435.779358 15.036444,445.447479 
	C23.225487,466.243500 36.958279,482.314331 56.580463,493.221130 
	C69.409859,500.352264 83.069466,504.268188 97.800667,505.116028 
	C112.914001,505.985870 127.971054,507.792267 143.070190,508.964050 
	C154.267563,509.832977 165.494232,510.320801 176.702881,511.054352 
	C177.570816,511.111176 178.399368,511.769714 179.123108,512.574280 
	C119.739861,513.000000 60.479725,513.000000 1.000000,513.000000 
	C1.000000,454.312622 1.000000,395.624969 1.000002,336.468658 
z"/>
<path fill="#000000" opacity="1.000000" stroke="none" 
	d="
M178.531342,1.000000 
	C178.030792,1.665648 177.092255,2.858817 176.087723,2.917256 
	C162.552383,3.704680 148.987183,4.060938 135.471695,5.083387 
	C123.188133,6.012640 110.982353,8.056178 98.693344,8.800699 
	C88.417740,9.423238 78.559296,11.255822 68.983505,14.930223 
	C47.737652,23.082630 31.545261,37.077328 20.545139,56.976837 
	C13.548197,69.634491 9.623260,83.122231 8.867548,97.710068 
	C8.075794,112.993637 6.231010,128.220123 5.024323,143.485611 
	C4.191703,154.018860 3.687507,164.577820 2.955000,175.119614 
	C2.883337,176.150925 2.238192,177.142410 1.429619,178.076187 
	C1.000000,119.072777 1.000000,60.145550 1.000000,1.000000 
	C60.020714,1.000000 119.041702,1.000000 178.531342,1.000000 
z"/>
<path fill="#000000" opacity="1.000000" stroke="none" 
	d="
M335.468658,513.000000 
	C336.383514,512.339539 337.738129,511.178314 339.155060,511.096466 
	C352.678833,510.315216 366.241180,510.064240 379.737183,508.975769 
	C395.784302,507.681519 411.882812,506.378967 427.765015,503.857819 
	C445.294495,501.075256 460.910583,493.478363 474.196960,481.417053 
	C489.456512,467.564484 499.345337,450.651520 503.294678,430.412018 
	C504.548615,423.985809 505.371277,417.454437 506.011810,410.933899 
	C507.475830,396.029572 508.886627,381.115326 509.964569,366.179504 
	C510.643280,356.774872 510.681030,347.324005 510.947083,337.427185 
	C511.435974,336.428375 511.984131,335.896240 512.766113,335.682068 
	C513.000000,394.927216 513.000000,453.854401 513.000000,513.000000 
	C453.979279,513.000000 394.958313,513.000000 335.468658,513.000000 
z"/>
<path fill="#0B55A1" opacity="1.000000" stroke="none" 
	d="
M310.250000,513.000000 
	C310.209412,512.700012 310.470978,512.625488 310.892365,512.888245 
	C311.000000,513.000000 310.500000,513.000000 310.250000,513.000000 
z"/>
<path fill="#FEFFFF" opacity="1.000000" stroke="none" 
	d="
M400.882568,230.061005 
	C412.910034,251.357697 415.561615,274.783478 415.805664,298.563965 
	C416.169952,334.057648 415.964569,369.557343 415.962494,405.054474 
	C415.962006,413.313934 412.300415,416.968079 404.077423,416.988800 
	C388.912048,417.027008 373.746460,417.022522 358.581085,416.990509 
	C350.235321,416.972900 346.695465,413.523560 346.687531,405.150696 
	C346.658325,374.320007 347.031281,343.484344 346.560181,312.661102 
	C346.393890,301.783142 345.263428,290.689606 342.727692,280.138000 
	C339.728210,267.656708 330.945007,259.847626 317.829102,258.030579 
	C303.283875,256.015564 291.049347,259.995270 282.779236,272.854858 
	C276.193512,283.095367 273.560974,294.547699 273.525818,306.578003 
	C273.431763,338.741852 273.499329,370.906189 273.490265,403.070312 
	C273.487152,414.029663 270.507660,416.997589 259.578247,416.999359 
	C245.746002,417.001617 231.913712,417.022186 218.081528,416.991516 
	C209.559052,416.972595 206.009903,413.387268 206.008072,404.762634 
	C205.994629,341.434296 205.994843,278.105927 206.007904,214.777588 
	C206.009689,206.087753 209.393097,202.705902 218.122635,202.678223 
	C233.121201,202.630630 248.119965,202.646133 263.588562,202.563507 
	C269.181763,203.289795 272.564392,205.967560 273.629944,212.075562 
	C273.733276,217.812149 273.733276,222.732346 273.733276,228.876053 
	C276.852570,224.902863 279.065826,222.083710 281.279083,219.264572 
	C299.050232,201.651932 321.259827,198.326828 344.843964,199.670349 
	C361.499268,200.619156 376.919128,205.131897 389.440430,216.789932 
	C392.937408,220.045792 395.793732,223.989716 399.318054,228.127502 
	C400.115936,229.131897 400.539673,229.626801 400.963409,230.121704 
	C400.963409,230.121704 400.922974,230.042587 400.882568,230.061005 
z"/>
<path fill="#FDFEFE" opacity="1.000000" stroke="none" 
	d="
M140.631119,202.323471 
	C148.236526,202.305237 155.381622,202.436310 162.526886,202.556778 
	C171.689041,202.711273 175.564438,206.492172 175.569824,215.718384 
	C175.606461,278.491821 175.610199,341.265259 175.565262,404.038666 
	C175.558762,413.126221 171.496506,417.026215 162.331512,416.985840 
	C146.856827,416.917664 131.382584,416.748199 115.438766,416.503998 
	C109.905037,413.947418 107.905708,409.923615 107.912918,404.316681 
	C107.994011,341.205505 107.954193,278.094208 107.977371,214.982956 
	C107.980415,206.710129 111.877190,202.757614 120.191292,202.580765 
	C126.848946,202.439117 133.510864,202.498108 140.631119,202.323471 
z"/>
<path fill="#FEFEFF" opacity="1.000000" stroke="none" 
	d="
M180.690643,120.365433 
	C186.480148,133.338730 187.306229,146.384216 181.104858,159.439713 
	C170.388550,182.000351 144.333786,190.402679 120.511192,178.869781 
	C120.155396,178.794647 120.105217,178.876389 119.975937,178.601074 
	C119.225586,178.022568 118.604515,177.719376 117.983437,177.416183 
	C107.798820,169.970383 100.863403,160.456284 98.822517,147.725555 
	C95.583092,127.518494 106.486877,107.891678 125.301086,100.224518 
	C144.343872,92.464211 166.114609,99.021118 177.763855,116.033424 
	C178.325104,116.853073 178.818863,117.718964 179.673431,119.025070 
	C180.243134,119.766548 180.483444,120.046272 180.723770,120.325989 
	C180.723770,120.325989 180.699860,120.351021 180.690643,120.365433 
z"/>
<path fill="#0F5092" opacity="1.000000" stroke="none" 
	d="
M281.085999,218.970184 
	C279.065826,222.083710 276.852570,224.902863 273.733276,228.876053 
	C273.733276,222.732346 273.733276,217.812149 273.814270,212.427460 
	C276.227814,214.200577 278.560364,216.438187 281.085999,218.970184 
z"/>
<path fill="#0B4C8F" opacity="1.000000" stroke="none" 
	d="
M180.772186,120.105530 
	C180.483444,120.046272 180.243134,119.766548 179.950012,119.202690 
	C180.205017,119.240730 180.512802,119.562904 180.772186,120.105530 
z"/>
<path fill="#0B4C8F" opacity="1.000000" stroke="none" 
	d="
M118.187149,177.700592 
	C118.604515,177.719376 119.225586,178.022568 120.014404,178.629730 
	C119.585052,178.617462 118.987961,178.301239 118.187149,177.700592 
z"/>
<path fill="#0B4C8F" opacity="1.000000" stroke="none" 
	d="
M400.887512,229.787811 
	C400.539673,229.626801 400.115936,229.131897 399.556335,228.325867 
	C399.884186,228.494476 400.347900,228.974197 400.887512,229.787811 
z"/>
</svg>