<svg version="1.1" id="Layer_1" xmlns="http://www.w3.org/2000/svg" xmlns:xlink="http://www.w3.org/1999/xlink" x="0px" y="0px"
	 width="100%" viewBox="0 0 512 512" enable-background="new 0 0 512 512" xml:space="preserve">
<path fill="#29A71A" opacity="1.000000" stroke="none" 
	d="
M224.705292,1.242162 
	C246.020889,1.000000 267.041779,1.000000 288.531342,1.000000 
	C293.570984,2.896999 298.466980,1.972873 303.182037,2.631658 
	C320.254639,5.017044 336.561005,10.178968 352.562103,16.375452 
	C377.770050,26.137329 400.748657,39.842644 421.434967,57.128357 
	C450.654114,81.544228 474.141479,110.650787 490.554413,145.177612 
	C499.588165,164.181335 506.330322,183.985260 510.476166,204.651917 
	C511.786835,211.185516 511.217102,217.889282 512.757812,224.704987 
	C513.000000,246.020889 513.000000,267.041779 513.000000,288.531342 
	C511.102966,293.571014 512.037903,298.468445 511.366425,303.181824 
	C508.888428,320.576813 503.601715,337.176300 497.230042,353.479279 
	C486.450165,381.061462 470.977631,405.858978 451.392059,427.898529 
	C431.941345,449.786316 409.577087,468.301514 383.860260,482.686401 
	C360.410706,495.803131 335.596527,504.988342 309.344849,510.459534 
	C302.825836,511.818207 296.127197,511.374451 289.295044,512.757812 
	C267.979095,513.000000 246.958206,513.000000 225.468658,513.000000 
	C220.772354,511.131348 216.208679,511.938019 211.815323,511.396851 
	C194.005188,509.203094 177.127151,503.709900 160.525787,497.213013 
	C132.961212,486.425751 108.125282,471.006012 86.095924,451.395569 
	C64.224388,431.925629 45.698288,409.575439 31.313175,383.859344 
	C18.196182,360.410248 9.011479,335.596069 3.540346,309.344635 
	C2.181706,302.825684 2.625553,296.127045 1.242220,289.294983 
	C1.000000,267.645782 1.000000,246.291550 1.000000,224.468658 
	C2.762692,221.988220 1.910600,219.514496 2.072189,217.268478 
	C3.485964,197.617554 9.556136,179.163101 16.583761,160.988403 
	C27.320429,133.221466 42.807453,108.188103 62.586819,86.090157 
	C101.040894,43.128387 148.355179,14.982946 205.144516,3.457201 
	C211.476791,2.172029 218.021561,2.482882 224.705292,1.242162 
z"/>
<path fill="#000000" opacity="1.000000" stroke="none" 
	d="
M513.000000,224.531342 
	C508.873016,223.084717 510.720642,218.902634 510.273560,216.071503 
	C506.782104,193.963440 500.185791,172.914734 491.277924,152.405960 
	C481.998474,131.041809 469.787170,111.515396 454.999481,93.743675 
	C437.565186,72.791359 417.414795,54.641369 394.222870,40.068306 
	C366.566437,22.689880 336.738678,10.930436 304.614075,4.836020 
	C299.375244,3.842146 293.859406,4.160424 288.938904,1.416155 
	C362.261658,1.000000 435.523407,1.035820 508.784790,0.894920 
	C512.473450,0.887826 513.097412,1.757346 513.091553,5.276858 
	C512.970032,78.205315 513.000000,151.134018 513.000000,224.531342 
z"/>
<path fill="#000000" opacity="1.000000" stroke="none" 
	d="
M1.000000,289.468658 
	C3.198895,288.661255 2.847249,290.313507 2.983895,291.560822 
	C5.312619,312.817169 11.219264,333.129883 18.972164,352.985138 
	C28.542137,377.494019 42.002022,399.791626 58.690125,419.939362 
	C77.364006,442.484558 99.210892,461.644104 124.432556,476.805878 
	C149.968002,492.156250 177.362732,502.677216 206.503357,508.578644 
	C211.784485,509.648163 217.077087,511.251862 222.598328,511.032379 
	C223.581848,510.993225 224.632050,511.012878 225.060974,512.583862 
	C151.738327,513.000000 78.476593,512.964172 5.215190,513.105103 
	C1.526532,513.112183 0.902595,512.242676 0.908459,508.723145 
	C1.029969,435.794708 1.000000,362.865967 1.000000,289.468658 
z"/>
<path fill="#000000" opacity="1.000000" stroke="none" 
	d="
M289.468658,513.000000 
	C288.653809,510.796997 290.311340,511.150482 291.555634,511.016876 
	C312.816223,508.734283 333.110992,502.776550 352.957672,495.033539 
	C377.478210,485.467072 399.771790,471.980743 419.940582,455.295227 
	C442.246185,436.841888 461.158325,415.223114 476.305145,390.382751 
	C491.997925,364.647003 502.503204,336.929718 508.647400,307.524658 
	C509.752106,302.237732 511.136047,296.910736 511.029358,291.405060 
	C511.010223,290.419464 511.012360,289.371307 512.583374,288.940552 
	C513.000000,362.261658 512.964172,435.523407 513.105042,508.784790 
	C513.112183,512.473450 512.242676,513.097412 508.723145,513.091553 
	C435.794708,512.970032 362.865967,513.000000 289.468658,513.000000 
z"/>
<path fill="#000000" opacity="1.000000" stroke="none" 
	d="
M224.531342,1.000000 
	C225.362503,2.751595 224.156403,2.858159 222.941971,2.973918 
	C204.158264,4.764360 186.092743,9.699727 168.442200,16.063906 
	C144.434189,24.720371 122.452110,37.172646 101.984009,52.430393 
	C88.486275,62.492146 76.501160,74.189613 65.221191,86.515182 
	C52.988243,99.882072 42.679863,114.780510 33.666328,130.584564 
	C24.900446,145.954391 17.929022,162.047012 12.588031,178.869553 
	C8.104148,192.992447 4.550417,207.337570 2.970626,222.113144 
	C2.879298,222.967316 2.725739,223.752487 1.412139,224.065186 
	C1.000000,151.071487 1.036031,78.142906 0.894796,5.214671 
	C0.887650,1.524596 1.759262,0.902722 5.277360,0.908576 
	C78.205650,1.029919 151.134186,1.000000 224.531342,1.000000 
z"/>
<path fill="#FDFEFD" opacity="1.000000" stroke="none" 
	d="
M122.938919,170.920273 
	C156.188797,121.553001 202.337067,96.581787 261.463379,97.209633 
	C335.397949,97.994736 400.636749,154.425705 413.061493,227.248734 
	C427.869598,314.040955 373.727600,393.661255 287.515991,411.318329 
	C254.034454,418.175690 221.588425,413.947845 190.501022,399.746033 
	C187.632233,398.435455 185.123047,398.052948 181.963303,398.818756 
	C157.557098,404.733917 133.099457,410.437286 108.651016,416.177582 
	C100.753723,418.031830 97.556053,414.924805 99.199120,406.912445 
	C104.245544,382.303650 109.298035,357.695709 114.495842,333.118652 
	C115.257011,329.519623 114.892708,326.507355 113.380226,323.085266 
	C90.309372,270.885376 93.468391,220.236771 122.938919,170.920273 
z"/>
<path fill="#2AA71B" opacity="1.000000" stroke="none" 
	d="
M311.763672,144.133560 
	C358.362366,167.887283 384.477478,214.059341 380.886841,265.888397 
	C377.032898,321.517792 332.696869,369.509766 277.632538,378.153931 
	C248.913025,382.662445 221.982132,377.808319 196.528030,364.172852 
	C192.438980,361.982361 188.744217,361.606384 184.240524,362.762115 
	C170.394730,366.315094 156.427399,369.394470 142.135880,372.745026 
	C141.720566,367.821198 143.449203,363.437073 144.293106,358.981750 
	C146.273849,348.524445 148.511322,338.112610 150.840439,327.726227 
	C151.614090,324.276215 151.148102,321.376099 149.427582,318.260315 
	C137.842728,297.280548 132.095184,274.909393 132.825882,250.788742 
	C134.528381,194.587555 176.828903,144.643036 232.110947,133.974960 
	C259.645203,128.661530 286.097778,131.823242 311.763672,144.133560 
z"/>
<path fill="#FDFEFD" opacity="1.000000" stroke="none" 
	d="
M291.677673,284.563385 
	C295.591217,280.957672 299.699249,280.312408 304.437439,281.726013 
	C313.671692,284.480927 323.002655,286.910706 332.245056,289.639465 
	C342.036407,292.530426 344.781738,300.430756 339.444885,309.008148 
	C327.717072,327.857025 311.214355,335.887726 289.072266,332.225494 
	C280.466583,330.802094 272.089264,328.705719 264.329834,324.832031 
	C230.706940,308.046753 203.905457,283.814331 185.461075,250.887512 
	C179.443298,240.144608 176.474945,228.324173 177.096191,215.881149 
	C177.894028,199.900620 187.643677,189.318787 199.663925,180.624893 
	C204.799362,176.910583 211.998474,179.512894 214.851166,185.510376 
	C219.559814,195.409882 223.857697,205.506485 228.238617,215.559280 
	C229.899338,219.370117 229.302872,223.082779 226.929062,226.437256 
	C225.103806,229.016571 223.086121,231.458893 221.187149,233.987045 
	C216.676895,239.991608 216.444611,244.197189 220.865662,250.349686 
	C230.291855,263.467560 242.464355,273.838196 255.009125,283.792480 
	C259.313599,287.208069 263.856812,290.309631 268.727478,292.878082 
	C276.088348,296.759705 280.143677,296.091766 286.128754,290.132477 
	C287.899170,288.369720 289.656342,286.593628 291.677673,284.563385 
z"/>
</svg>